<?xml version="1.0" encoding="UTF-8" standalone="no"?>
<!-- Created with Inkscape (http://www.inkscape.org/) -->

<svg
   xmlns:dc="http://purl.org/dc/elements/1.1/"
   xmlns:cc="http://creativecommons.org/ns#"
   xmlns:rdf="http://www.w3.org/1999/02/22-rdf-syntax-ns#"
   xmlns:svg="http://www.w3.org/2000/svg"
   xmlns="http://www.w3.org/2000/svg"
   xmlns:sodipodi="http://sodipodi.sourceforge.net/DTD/sodipodi-0.dtd"
   xmlns:inkscape="http://www.inkscape.org/namespaces/inkscape"
   version="1.1"
   id="svg144"
   xml:space="preserve"
   width="181.34666"
   height="183.25333"
   viewBox="0 0 181.34666 183.25333"
   sodipodi:docname="starbuckscoffeer_andre.svg"
   inkscape:version="0.92.4 (5da689c313, 2019-01-14)"><metadata
     id="metadata150"><rdf:RDF><cc:Work
         rdf:about=""><dc:format>image/svg+xml</dc:format><dc:type
           rdf:resource="http://purl.org/dc/dcmitype/StillImage" /><dc:title /></cc:Work></rdf:RDF></metadata><defs
     id="defs148" /><sodipodi:namedview
     pagecolor="#ffffff"
     bordercolor="#666666"
     borderopacity="1"
     objecttolerance="10"
     gridtolerance="10"
     guidetolerance="10"
     inkscape:pageopacity="0"
     inkscape:pageshadow="2"
     inkscape:window-width="1920"
     inkscape:window-height="1051"
     id="namedview146"
     showgrid="false"
     inkscape:zoom="3.6425467"
     inkscape:cx="44.498702"
     inkscape:cy="79.408632"
     inkscape:window-x="0"
     inkscape:window-y="0"
     inkscape:window-maximized="1"
     inkscape:current-layer="layer7" /><g
     inkscape:groupmode="layer"
     id="layer7"
     inkscape:label="registro"
     style="display:inline"><g
       id="g452"><path
         d="m 111.34,5.43984 c 0.788,0 2.021,-0.13476 2.021,1.02813 0,0.87891 -0.773,0.99297 -1.467,0.99297 h -1.612 v -2.0211 z m 2.645,-3.18789 h -0.826 l -1.617,2.63711 h -1.26 V 2.25195 h -0.691 v 5.71016 h 2.461 c 0.474,0 0.955,-0.01992 1.38,-0.28125 0.419,-0.24297 0.632,-0.74102 0.632,-1.22969 0,-1.12226 -0.788,-1.53203 -1.793,-1.56211 z m 1.916,2.86289 c 0,2.47813 -1.992,4.48204 -4.435,4.48204 -2.464,0 -4.453,-2.00391 -4.453,-4.48204 0,-2.50468 1.989,-4.499996 4.453,-4.499996 2.443,0 4.435,1.995316 4.435,4.499996 m -9.504,0 c 0,2.81211 2.268,5.09726 5.069,5.09726 2.795,0 5.039,-2.28515 5.039,-5.09726 C 116.505,2.28516 114.261,0 111.466,0 c -2.801,0 -5.069,2.28516 -5.069,5.11484"
         style="fill:#231f20;fill-opacity:1;fill-rule:nonzero;stroke:none;stroke-width:0.1"
         id="path184"
         inkscape:connector-curvature="0"
         transform="matrix(1.3333333,0,0,-1.3333333,0,183.25333)" /></g></g><g
     inkscape:groupmode="layer"
     id="layer6"
     inkscape:label="linha_externa"
     style="display:inline"><g
       id="g449"><path
         d="M 0,69.4301 C 0,106.983 30.4453,137.44 68.0012,137.44 105.557,137.44 136.011,106.983 136.011,69.4301 136.011,31.8719 105.557,1.42617 68.0012,1.42617 30.4453,1.42617 0,31.8719 0,69.4301"
         style="fill:#006838;fill-opacity:1;fill-rule:nonzero;stroke:none;stroke-width:0.1"
         id="path156"
         inkscape:connector-curvature="0"
         transform="matrix(1.3333333,0,0,-1.3333333,0,183.25333)" /><path
         d="m 2.00391,69.4301 c 0,36.4449 29.55199,65.9939 65.99729,65.9939 36.4508,0 65.9968,-29.549 65.9968,-65.9939 0,-36.4449 -29.546,-66.00315 -65.9968,-66.00315 -36.4453,0 -65.99729,29.55825 -65.99729,66.00315"
         style="fill:#ffffff;fill-opacity:1;fill-rule:nonzero;stroke:none;stroke-width:0.1"
         id="path158"
         inkscape:connector-curvature="0"
         transform="matrix(1.3333333,0,0,-1.3333333,0,183.25333)" /></g></g><g
     inkscape:groupmode="layer"
     id="layer10"
     inkscape:label="circulo_verde"
     style="display:inline"><g
       id="g445"><path
         d="m 4.15156,69.4301 c 0,35.2679 28.58794,63.8499 63.84964,63.8499 35.2698,0 63.8548,-28.582 63.8548,-63.8499 0,-35.261 -28.585,-63.84924 -63.8548,-63.84924 -35.2617,0 -63.84964,28.58824 -63.84964,63.84924"
         style="display:inline;fill:#006838;fill-opacity:1;fill-rule:nonzero;stroke:none;stroke-width:0.1"
         id="path160"
         inkscape:connector-curvature="0"
         transform="matrix(1.3333333,0,0,-1.3333333,0,183.25333)" /></g></g><g
     inkscape:groupmode="layer"
     id="layer8"
     inkscape:label="texto_circulo"
     style="display:inline"><g
       id="g442"><path
         d="m 49.8164,122.188 c -0.9172,-0.39 -1.9187,-0.803 -2.7101,-1.131 0.4601,-1.025 0.8378,-1.852 1.4242,-3.146 l 2.7097,1.142 c 0.5828,0.404 0.6184,1.354 0.3489,2.042 -0.3813,0.812 -1.2012,1.275 -1.7727,1.093 M 47.127,107.973 c -1.9161,4.676 -4.2684,10.152 -6.0032,14.532 2.1797,0.919 5.0742,2.15 7.5,3.187 2.2383,0.955 5.2004,0.92 7.1782,-1.134 0.996,-1.104 1.3945,-2.83 1.271,-3.905 -0.1167,-0.961 -0.4746,-1.828 -1.1777,-2.731 1.582,-1.465 3.677,-3.418 5.4699,-5.071 l -5.2297,-1.142 c -1.7664,1.426 -2.73,2.188 -4.2949,3.477 -0.6148,-0.261 -1.125,-0.475 -1.7578,-0.738 l 1.8985,-4.202 -4.8543,-2.273"
         style="display:inline;fill:#ffffff;fill-opacity:1;fill-rule:nonzero;stroke:none;stroke-width:0.1"
         id="path164"
         inkscape:connector-curvature="0"
         transform="matrix(1.3333333,0,0,-1.3333333,0,183.25333)" /><path
         d="m 107.985,113.396 c 0.938,-1.16 1.579,-2.601 1.987,-4.064 -1.155,-0.621 -2.045,-1.194 -3.15,-1.825 -0.278,1.714 -1.216,3.454 -2.897,4.31 -0.809,0.469 -1.998,0.556 -2.904,0.246 -1.4058,-0.521 -2.6272,-1.734 -3.1487,-3.146 -0.4746,-1.354 0.0554,-2.678 0.8203,-3.73 1.0808,-1.222 2.5224,-1.855 4.1544,-1.913 -0.744,-1.201 -1.219,-1.975 -1.826,-2.894 -2.7097,0.386 -5.2581,1.875 -6.8022,4.388 -1.3211,2.133 -1.4063,5.394 -0.243,7.629 1.2097,2.461 3.6094,4.037 6.2112,4.395 2.929,0.316 5.941,-1.131 7.798,-3.396"
         style="display:inline;fill:#ffffff;fill-opacity:1;fill-rule:nonzero;stroke:none;stroke-width:0.1"
         id="path166"
         inkscape:connector-curvature="0"
         transform="matrix(1.3333333,0,0,-1.3333333,0,183.25333)" /><path
         d="m 116.265,103.625 c -1.442,-1.075 -3.258,-2.431 -4.697,-3.498 2.224,-0.2575 4.905,-0.5211 7.222,-0.7848 0.844,-1.5703 1.547,-2.8711 2.484,-4.6055 l -8.302,0.6035 c -1.647,-2.9707 -3.249,-5.8125 -4.817,-8.6453 -0.967,1.4149 -1.719,3.2344 -2.66,4.8074 1.064,2.1036 2.294,4.5586 3.358,6.5918 -1.679,-1.239 -3.381,-2.5019 -5.127,-3.8054 l -3.036,4.0574 c 4.108,3.0589 12.516,9.3199 12.516,9.3199 l 3.059,-4.041"
         style="display:inline;fill:#ffffff;fill-opacity:1;fill-rule:nonzero;stroke:none;stroke-width:0.1"
         id="path168"
         inkscape:connector-curvature="0"
         transform="matrix(1.3333333,0,0,-1.3333333,0,183.25333)" /><path
         d="m 16.1223,89.516 c -1.7114,-1.3301 -2.936,-3.2605 -2.5785,-5.4754 0.0824,-0.3312 0.3285,-0.8613 0.8554,-0.9289 1.3481,-0.082 1.966,1.4301 2.4668,2.4262 0.8028,1.5789 2.1887,3.4566 4.1399,3.6441 1.7019,0.1145 3.1257,-0.3277 4.2363,-1.6523 1.6789,-2.0211 1.3738,-5.2793 0.5832,-7.6289 -0.75,-1.7403 -1.916,-3.5098 -3.5715,-4.6524 l -2.9883,1.8313 c 1.6321,1.1336 3.343,2.9883 3.5684,5.0594 0,0.7382 -0.161,1.7406 -1.0813,1.8222 -1.5523,0.0645 -2.0918,-2.8476 -3.3867,-4.1425 -1.0015,-1.0254 -2.2437,-1.7989 -3.8199,-1.5821 -1.468,0.0821 -2.707,1.0051 -3.5625,2.1621 -1.63204,2.4785 -0.832,6.1289 0.1641,8.0391 0.6089,1.0781 1.3242,2.1594 2.3203,2.9883 0.8379,-0.6004 1.7515,-1.2774 2.6543,-1.9102"
         style="display:inline;fill:#ffffff;fill-opacity:1;fill-rule:nonzero;stroke:none;stroke-width:0.1"
         id="path170"
         inkscape:connector-curvature="0"
         transform="matrix(1.3333333,0,0,-1.3333333,0,183.25333)" /><path
         d="m 124.397,87.3629 c 1.442,-2.3203 1.993,-5.3938 1.249,-8.209 l -3.074,0.1672 c 0.419,1.8543 0.721,4.1715 -0.58,5.7215 -0.387,0.466 -1.072,0.7469 -1.567,0.4953 -1.67,-1.3418 0.07,-4.3305 -0.897,-6.7707 -0.451,-1.175 -0.964,-1.966 -2.343,-2.5168 -1.741,-0.6621 -3.894,-0.3281 -5.215,0.9961 -2.602,2.7129 -3.815,6.914 -2.168,10.4504 h 3.24 c -0.545,-1.386 -0.943,-3.3426 -0.419,-4.9746 0.284,-0.6887 0.618,-1.5821 1.406,-1.8254 2.602,-0.2926 0.985,3.891 1.462,5.5254 0.311,1.2394 1.002,2.6488 2.356,3.2609 2.49,1.2129 5.393,-0.1672 6.55,-2.3203"
         style="display:inline;fill:#ffffff;fill-opacity:1;fill-rule:nonzero;stroke:none;stroke-width:0.1"
         id="path172"
         inkscape:connector-curvature="0"
         transform="matrix(1.3333333,0,0,-1.3333333,0,183.25333)" /><path
         d="m 38.8328,37.1219 c 0.4223,-0.7879 0.8266,-1.4828 1.1137,-2.634 -0.9262,-0.4598 -2.0918,-1.0367 -3.1027,-1.532 -0.243,1.816 -1.8543,3.6089 -3.6536,4.0781 -1.4882,0.3808 -3.1172,-0.3281 -4.2183,-1.6531 -0.9145,-1.084 -1.1836,-2.6329 -0.9145,-3.984 0.3989,-1.5699 2.6836,-3.2367 4.7258,-3.2899 l 0.5828,-0.0179 c -0.6004,-1.2211 -0.9722,-1.977 -1.4969,-2.9911 -3.3308,0.109 -6.7121,2.0739 -7.9597,5.309 -1.0754,2.6192 -0.6008,6.0168 1.084,8.2028 2.0449,2.6015 5.3027,3.3164 8.4578,2.6488 2.2644,-0.5332 4.1164,-2.1801 5.3816,-4.1367"
         style="display:inline;fill:#ffffff;fill-opacity:1;fill-rule:nonzero;stroke:none;stroke-width:0.1"
         id="path174"
         inkscape:connector-curvature="0"
         transform="matrix(1.3333333,0,0,-1.3333333,0,183.25333)" /><path
         d="m 45.302,28.409 c -1.1899,0.559 -2.5344,0.1172 -3.4836,-0.657 -1.5379,-1.5231 -2.5579,-3.5911 -1.9422,-5.8059 0.2578,-0.902 1.1336,-1.5941 2.0093,-1.9512 1.2778,-0.4687 2.5137,-0.059 3.5012,0.7852 1.5117,1.5578 2.5988,3.7027 1.6555,5.889 -0.2231,0.7258 -1.0227,1.5231 -1.7402,1.7399 m 5.2261,0.2601 c 1.6875,-2.1652 1.7141,-5.5101 0.6621,-7.9621 -1.1773,-2.505 -3.4273,-4.0961 -5.8882,-4.6558 -2.9829,-0.4633 -5.804,0.5039 -7.9575,2.5777 -1.9043,2.1039 -2.9617,5.116 -1.9859,8.0402 0.8523,3.1778 3.9488,5.4989 7.1277,5.8879 3.2903,0.191 6.3282,-1.3211 8.0418,-3.8879"
         style="display:inline;fill:#ffffff;fill-opacity:1;fill-rule:nonzero;stroke:none;stroke-width:0.1"
         id="path176"
         inkscape:connector-curvature="0"
         transform="matrix(1.3333333,0,0,-1.3333333,0,183.25333)" /><path
         d="m 80.048,23.159 c -2.3261,-0.3281 -4.5324,-0.5981 -6.7445,-0.961 0.082,-1.0339 0.1528,-1.8929 0.2168,-2.7601 2.0742,0.293 3.9289,0.557 5.8598,0.8383 l 0.5918,-3.6621 C 78.0496,16.3379 75.782,16.016 73.8074,15.732 c 0.1059,-1.5968 0.2578,-3.639 0.4043,-5.405 -1.6582,-0.1411 -3.334,-0.2348 -5.0215,-0.34302 L 68.177,25.5852 c 3.7378,0.357 7.6726,0.8609 11.25,1.45 0.1875,-1.175 0.3777,-2.3653 0.621,-3.8762"
         style="display:inline;fill:#ffffff;fill-opacity:1;fill-rule:nonzero;stroke:none;stroke-width:0.1"
         id="path178"
         inkscape:connector-curvature="0"
         transform="matrix(1.3333333,0,0,-1.3333333,0,183.25333)" /><path
         d="m 92.8977,29.6922 -5.9914,-2.9184 1.0457,-2.4609 c 1.8371,0.8562 3.4043,1.559 5.2648,2.4262 0.4043,-0.8911 0.8645,-1.9282 1.327,-2.9532 -1.7168,-0.8089 -3.5211,-1.5757 -5.3028,-2.4109 0.3574,-0.8238 0.5981,-1.3801 1.166,-2.6898 l 6.5102,3.0089 1.4148,-3.1851 C 94.573,16.7781 90.4719,14.9148 86.9211,13.3441 l -5.5957,14.2438 c 3.5508,1.5473 6.8965,3.1531 10.2832,4.934 0.4156,-0.8668 1.2891,-2.8297 1.2891,-2.8297"
         style="display:inline;fill:#ffffff;fill-opacity:1;fill-rule:nonzero;stroke:none;stroke-width:0.1"
         id="path180"
         inkscape:connector-curvature="0"
         transform="matrix(1.3333333,0,0,-1.3333333,0,183.25333)" /><path
         d="m 65.9441,21.7441 c -2.3113,0.3891 -4.5,0.8079 -6.7261,1.1278 -0.2524,-1.0668 -0.4692,-2.236 -0.6684,-3.0438 2.0449,-0.3691 3.7031,-0.6332 5.8422,-1.0019 l -0.5332,-3.5543 c -1.9863,0.334 -4.0844,0.6531 -6.1523,1.0312 -0.3989,-1.5929 -0.7852,-3.439 -1.2192,-5.1851 -1.5879,0.3808 -3.1641,0.7968 -4.8808,1.2242 l 3.7675,15.3168 c 3.6742,-0.8 7.4504,-1.4891 11.0332,-2.0281 -0.1465,-1.1707 -0.3047,-2.5071 -0.4629,-3.8868"
         style="display:inline;fill:#ffffff;fill-opacity:1;fill-rule:nonzero;stroke:none;stroke-width:0.1"
         id="path182"
         inkscape:connector-curvature="0"
         transform="matrix(1.3333333,0,0,-1.3333333,0,183.25333)" /><path
         d="m 21.7297,106.59 3.3047,-1.939 -2.4614,-3.981 9.5747,-6.279 -2.5137,-4.1277 -9.7356,6.0496 -2.323,-3.7852 -3.1992,2.1301 7.3535,11.9322"
         style="display:inline;fill:#ffffff;fill-opacity:1;fill-rule:nonzero;stroke:none;stroke-width:0.1"
         id="path186"
         inkscape:connector-curvature="0"
         transform="matrix(1.3333333,0,0,-1.3333333,0,183.25333)" /><path
         d="m 26.4758,111.729 5.9058,4.989 14.3149,-8.982 -4.1223,-2.725 -3.1496,1.656 -3.9871,-3.487 1.3801,-3.3163 -3.6098,-4.0313 z m 5.2262,-0.246 2.0625,-4.758 2.3441,2.068 z"
         style="display:inline;fill:#ffffff;fill-opacity:1;fill-rule:nonzero;stroke:none;stroke-width:0.1"
         id="path188"
         inkscape:connector-curvature="0"
         transform="matrix(1.3333333,0,0,-1.3333333,0,183.25333)" /><path
         d="m 69.5242,119.68 c -0.6094,0.006 -2.1324,0 -2.8008,0 0.0469,-0.949 0.0735,-2.223 0.1235,-3.129 0.773,0 2.0269,0.006 2.8152,0.006 1.0109,0.07 1.0281,1.172 1.0371,1.553 -0.0437,0.489 -0.1582,1.429 -1.175,1.57 m -0.2664,5.845 c -0.6183,0.003 -2.1418,0 -2.8098,0 0.05,-0.935 0.0852,-2.03 0.1348,-2.936 0.7617,0 2.0246,0 2.7981,0 1.0195,0.071 1.0339,1.09 1.0402,1.459 -0.041,0.493 -0.1523,1.34 -1.1633,1.477 m 5.0274,2.106 c 1.0808,-0.963 1.3093,-2.545 1.1164,-3.626 -0.22,-0.985 -0.8618,-1.958 -1.7407,-2.646 1.0786,-0.809 2.1211,-1.515 2.3618,-3.067 0.2839,-1.489 -0.1582,-2.69 -0.9551,-3.736 -1.6821,-1.907 -4.2453,-1.582 -6.6684,-1.661 H 61.843 l -0.041,0.589 -0.6743,14.938 c 3.4399,0 4.4067,0.006 7.5703,0.006 4.2422,0 4.8223,-0.258 5.5872,-0.797"
         style="display:inline;fill:#ffffff;fill-opacity:1;fill-rule:nonzero;stroke:none;stroke-width:0.1"
         id="path190"
         inkscape:connector-curvature="0"
         transform="matrix(1.3333333,0,0,-1.3333333,0,183.25333)" /><path
         d="m 116.314,58.7426 h -4.924 l 3.843,-3.0938 -1.365,-4.7109 4.283,2.6398 4.301,-2.6398 -1.389,4.7168 3.821,3.0879 h -4.896 l -1.837,4.5586 -1.837,-4.5586"
         style="display:inline;fill:#ffffff;fill-opacity:1;fill-rule:nonzero;stroke:none;stroke-width:0.1"
         id="path196"
         inkscape:connector-curvature="0"
         transform="matrix(1.3333333,0,0,-1.3333333,0,183.25333)" /><path
         d="M 15.8289,58.7426 H 10.884 l 3.8672,-3.0938 -1.3774,-4.7109 4.2832,2.6398 4.3008,-2.6398 -1.3824,4.7168 3.823,3.0879 H 19.491 l -1.834,4.5586 -1.8281,-4.5586"
         style="display:inline;fill:#ffffff;fill-opacity:1;fill-rule:nonzero;stroke:none;stroke-width:0.1"
         id="path198"
         inkscape:connector-curvature="0"
         transform="matrix(1.3333333,0,0,-1.3333333,0,183.25333)" /><path
         d="m 103.579,38.6012 -4.9567,-4.4621 1.6877,-2.068 c 1.538,1.318 2.838,2.4258 4.4,3.773 0.639,-0.7441 1.356,-1.605 2.08,-2.4722 -1.436,-1.243 -2.947,-2.4879 -4.436,-3.7739 0.569,-0.691 0.953,-1.1718 1.87,-2.273 l 5.437,4.702 2.233,-2.6809 c -3.138,-2.7129 -6.563,-5.625 -9.554,-8.1152 l -9.3373,12.164 c 3,2.4731 5.7864,4.9223 8.5603,7.5645 0.636,-0.709 2.016,-2.3582 2.016,-2.3582"
         style="display:inline;fill:#ffffff;fill-opacity:1;fill-rule:nonzero;stroke:none;stroke-width:0.1"
         id="path200"
         inkscape:connector-curvature="0"
         transform="matrix(1.3333333,0,0,-1.3333333,0,183.25333)" /><path
         d="m 82.8984,116.982 c -0.5593,-1.415 -0.7761,-2.476 1.5821,-3.237 1.2863,-0.416 2.0715,0.176 2.6191,1.593 l 3.5332,8.64 4.9539,-2.18 -3.3101,-8.329 c -1.8196,-4.731 -4.6321,-5.344 -9.4661,-3.545 -5.3964,2.022 -6.6765,4.492 -5.03,8.781 l 3.0933,8.581 5.1887,-1.711 -3.1641,-8.593"
         style="display:inline;fill:#ffffff;fill-opacity:1;fill-rule:nonzero;stroke:none;stroke-width:0.1"
         id="path202"
         inkscape:connector-curvature="0"
         transform="matrix(1.3333333,0,0,-1.3333333,0,183.25333)" /></g></g><g
     inkscape:groupmode="layer"
     id="layer9"
     inkscape:label="imagem_central"
     style="display:inline"><g
       id="g423"><path
         d="m 28.5383,69.6969 c 0,21.7234 17.6012,39.3221 39.3277,39.3221 21.7031,0 39.308,-17.5987 39.308,-39.3221 0,-21.7121 -17.6049,-39.3137 -39.308,-39.3137 -21.7265,0 -39.3277,17.6016 -39.3277,39.3137"
         style="display:inline;fill:#ffffff;fill-opacity:1;fill-rule:nonzero;stroke:none;stroke-width:0.1"
         id="path162"
         inkscape:connector-curvature="0"
         transform="matrix(1.3333333,0,0,-1.3333333,0,183.25333)" /><path
         d="m 64.5438,91.0047 c -0.4215,-0.2754 0.0238,-0.6098 0.246,-0.8207 1.7961,0.132 4.1372,0.2988 6.2168,0.0793 l 0.4164,0.407 c -1.0492,1.0344 -2.4289,2.0012 -3.7328,2.7481 z m 1.8285,-16.7461 c 0.0465,-0.2231 -0.141,-0.5453 0.1609,-0.6566 0.8789,0.1906 2.4871,-0.4747 2.9734,0.5773 -0.6738,0.7707 -2.2617,0.6883 -3.1343,0.0793 z m 17.3203,8.4637 c 0.1402,0.823 1.4414,0.9636 2.3203,1.0695 2.5105,0.1785 4.6199,-0.7707 6.6266,-1.8227 0.2082,1.0727 0.557,1.9309 0.8378,2.9063 0.6622,1.6293 1.9629,3.2875 3.6504,3.9789 0.4282,0.1461 0.5981,-0.2582 0.4868,-0.8266 -1.0754,-5.6394 2.8005,-9.6148 5.3935,-13.9273 -2.986,-1.9953 -5.8037,1.0719 -8.6225,1.8219 -1.239,0.2785 -2.707,0.3574 -3.896,0.1699 -1.7114,2.6543 -4.0082,5.1387 -6.7969,6.6301 z m -1.9922,1.4851 c -2.7922,1.0606 -5.6606,2.3203 -8.7863,2.8215 -6.6621,1.134 -13.0696,-0.334 -18.5774,-2.9883 -0.4629,2.7918 -1.8222,5.2293 -3.4746,7.5438 0.7617,0.4746 2.2942,-0.1582 3.2285,-0.4922 0.9668,-0.3543 1.6645,-0.6707 2.4934,-0.9961 0.1672,1.6586 -0.8086,3.2875 -1.4942,4.8078 0.618,0.3547 1.2129,0.0789 1.743,-0.0789 2.1801,-0.8352 4.1367,-2.1328 6.1235,-3.3227 l -0.0059,0.0235 1.8223,4.4535 -3.3899,3.0699 c -0.384,0.3457 -0.4133,0.3344 -0.1262,0.3547 0.4426,0.0262 4.6086,0.2371 4.6086,0.2371 0,0 1.9512,4.228 1.9661,4.272 0.0171,0.046 0.0464,0 0.0464,0 l 1.9746,-4.19 c 0,0 4.5997,-0.2578 4.729,-0.2636 0.1257,-0.0059 0,-0.1114 0,-0.1114 l -3.645,-3.457 1.7348,-4.2012 -0.0063,-0.0058 c 2.5168,1.4535 4.9868,3.3078 8.0332,3.5039 -0.1582,-0.9141 -1.3679,-3.1844 -1.3945,-4.9246 1.591,0.6707 3.5805,1.6875 5.6367,1.573 -0.9839,-1.6933 -3.1289,-4.6988 -3.2398,-7.6289 z m -7.2191,-5.6363 c -1.0426,0.4098 -2.4989,0.9961 -3.5625,0.1754 -0.6036,1.2953 1.0839,1.0195 1.6613,1.4004 0.8586,0.0234 1.8601,0.0531 2.2351,-0.6676 0.0356,-0.1645 0.0586,-0.7121 -0.3339,-0.9082 z m 0.1117,4.3531 c 0.1519,-0.3398 0.5332,-0.9258 0.2222,-1.4531 -1.6289,0.498 -4.1511,0.1406 -5.0507,-0.4039 -1.4122,-1.0547 -1.1922,-3.2141 -0.8375,-4.7348 l 0.4277,-0.325 c 0.6914,0.1582 0.7117,1.0371 1.3269,1.2391 1.0164,-0.2461 2.4231,-0.609 3.3899,0 0.8555,-0.0262 1.0078,-1.2598 0.9195,-1.8223 -0.618,-3.2109 -1.9629,-6.6855 -5.2265,-8.2207 -1.359,-0.6531 -3.6356,-0.1785 -4.3915,0.2637 -3.2167,1.9043 -5.007,5.6894 -4.6496,9.1113 0.0762,0.4926 0.6329,0.9434 1.2422,0.5801 1.2981,-0.8789 2.7129,0.6945 3.8996,-0.4129 1.4414,0.6418 0.5828,2.4082 0.5828,3.7352 -1.1628,1.4882 -3.1492,1.2746 -4.8894,1.1601 -0.8176,0.2871 -0.0203,1.2832 0.2434,1.7465 1.875,2.6422 5.4722,2.7008 8.6191,2.3086 1.4559,-0.1875 3.2664,-1.1664 4.1719,-2.7719 z M 61.5586,80.1469 c 1.2977,0.3078 2.7512,-0.0789 3.3957,-1.0809 v -0.3312 c -0.9438,0.0851 -2.4641,1.0312 -3.3227,-0.1637 -0.5476,-0.2523 -0.5972,0.3629 -0.6179,0.7437 -0.0149,0.4895 0.1758,0.7532 0.5449,0.8321 z m -11.95,0.8261 c -1.4008,-1.3828 -3.1231,-3.0644 -4.134,-4.8074 -3.4543,0.6887 -6.2258,-1.3273 -9.1262,-2.4875 -0.9898,-0.3105 -2.5664,-0.334 -3.4773,0.4223 2.7336,4.5 6.6008,8.6543 5.6277,14.5836 -0.1082,0.7148 0.8325,0.0879 1.166,-0.0762 2.1332,-1.664 3.1528,-3.9551 3.4016,-6.4687 2.6746,1.0195 6.3281,2.7949 9.2024,0.914 C 51.384,82.3797 50.4695,81.7203 49.6086,80.973 Z M 104.335,68.2934 c -4.283,-1.6875 -7.0955,2.5988 -11.2034,2.5636 -0.5125,0.6153 -0.6445,1.3563 -0.9019,2.077 4.6109,1.4914 7.6519,-5.1621 12.1843,-1.734 -0.349,5.6012 -1.547,10.875 -4.131,15.5797 -2.7217,5.3555 -7.7193,10.6465 -12.9463,13.8403 -9.8316,6.972 -25.8633,7.468 -36.3222,1.5 C 39.3313,96.1695 32.2883,84.0961 31.3738,71.6043 c 0,0 -0.1109,-0.4133 0.3282,-0.6621 4.4386,-2.3793 7.2484,2.8297 11.5316,2.2351 1.107,-0.2492 0.1172,-1.1808 -0.1672,-1.8195 -0.334,-0.832 -1.5383,-0.3574 -2.2351,-0.668 -2.9297,-1.2597 -5.9418,-3.7175 -9.3696,-2.3964 0,0 0.0238,-0.2516 0.0473,-0.618 0.0699,-0.9492 0.193,-2.6164 0.193,-2.6164 3.8441,-1.2156 6.3339,2.789 9.9496,2.3207 -0.0762,-0.8086 -0.1321,-1.6645 -0.5715,-2.2387 -3.3223,-0.164 -5.3992,-3.2867 -8.877,-3.0699 l 0.668,-2.6398 c 2.9211,-0.4043 4.948,2.7773 7.9602,2.4785 l -0.0852,-1.9895 c -2.6543,-0.2519 -4.3684,-2.739 -7.0457,-2.9004 0.357,-6.1402 4.6109,0.9348 7.2891,-0.2519 0.1113,-0.659 0.5093,-1.3008 0.2515,-1.9922 -2.1504,0.0351 -3.5152,-1.8516 -5.3847,-2.484 0.3222,-0.7738 0.548,-1.8781 1.4125,-2.1621 1.5964,0.6707 2.8972,2.0769 4.7988,1.9918 -0.2231,0.718 -0.334,1.5793 -0.334,2.3207 2.4082,-0.6274 3.7852,1.2476 5.4781,2.3258 0.3867,3.3988 2.7602,5.9945 4.2246,8.9472 0.261,0.6067 0.2258,1.3301 0.1992,1.9602 -0.0789,3.6004 -1.9976,7.175 -0.5859,10.8371 0.5395,1.4234 1.4914,3.375 3.041,3.7879 -2.8504,-3.4016 -2.3433,-8.5957 -0.8289,-12.4309 0.1731,-0.4273 0.4219,-1.5058 0.3867,-2.1941 -0.123,-3.0324 -2.9531,-5.3469 -4.0398,-8.0891 -1.3418,-2.739 -0.1059,-5.8652 1.4059,-8.1179 -2.1739,-1.6875 -5.0332,-4.4036 -7.0372,-3.9055 -0.8027,0.3871 -0.8378,1.4941 -1.2449,2.2383 -1.6875,0.3285 -3.0437,-0.8203 -4.3918,-1.6524 l 1.5824,-1.989 c 1.1571,0.5476 2.8653,1.8836 3.8083,0.9113 1.9628,-2.3207 -1.9129,-1.1664 -2.4083,-2.5785 0.5508,-0.7442 1.2192,-1.2949 1.9106,-1.9102 0.7996,0.2578 1.7281,1.011 2.3992,0.7559 0.2195,-0.0879 0.8289,-0.9434 0.9988,-1.5 l -1.491,-0.8992 c 1.075,-1.1075 2.4348,-2.1653 3.7293,-2.6633 0.7707,2.6015 2.8071,4.6996 3.8117,7.1281 0.4129,1.2481 0.4922,2.1883 0.5008,2.9883 2.7864,-4.3332 -3.0672,-6.9168 -3.0672,-11.0242 0.6004,-0.5602 1.345,-0.859 2.0774,-1.1571 -0.1113,3.2313 2.5894,5.2993 3.7234,8.0356 2.0742,4.3359 -2.7043,7.0461 -4.2219,10.5293 -1.4414,3.1582 0.5747,6.1117 2.5664,8.4668 1.3887,1.4828 1.7524,2.959 1.6235,4.4328 -0.2754,3.325 -2.8535,6.4656 -1.9399,10.3918 0.5747,2.4051 1.7168,5.0914 4.125,6.0613 -1.7461,-2.0187 -2.648,-4.3625 -2.8179,-7.0488 -0.2578,-3.9875 2.4402,-6.1731 2.5984,-9.4043 0.032,-0.6504 0.032,-1.3211 -0.2726,-2.0363 -1.3473,-2.9356 -4.4293,-5.1387 -4.3946,-8.6192 -0.357,-4.5996 5.6313,-6.334 4.966,-11.0359 -0.05,-4.0871 -4.7429,-6.3543 -3.7265,-10.7731 L 56.991,34.382 c -1.4527,4.9723 3.7094,7.7348 3.7324,12.1852 0.2551,3.7586 -3.7879,5.7246 -4.8074,8.9586 -1.0754,3.2051 1.2742,5.7715 3.0735,8.2121 0.8816,1.3711 1.0925,2.6629 0.9429,3.9375 -0.3601,3.1289 -2.8914,6.0613 -2.7715,9.4832 -0.0586,3.1586 1.3215,6.2492 4.0637,7.7168 -0.8293,-1.1895 -1.7754,-2.3203 -2.2351,-3.6445 -1.72,-4.6524 1.1543,-8.625 2.5691,-12.6094 0.1086,-0.3281 0.1785,-0.6473 0.2195,-0.9461 0.5395,-3.6914 -3.2398,-6.05 -3.9461,-9.4219 -0.9843,-4.0812 3.4246,-5.9617 4.3914,-9.366 2.0625,-5.5492 -4.6464,-8.7922 -3.0757,-14.3434 0.3804,-1.4363 1.8867,-1.2691 2.9058,-1.3222 -2.4961,4.5883 1.518,8.3703 2.7363,12.3492 1.354,4.2594 -2.707,6.6617 -4.3945,9.9547 -1.7723,3.7035 2.2707,5.9972 3.1496,9.1172 0.741,2.1328 2.5281,0.3605 3.9406,0.3605 1.7547,0 4.1129,1.6024 4.5172,0.2258 0.6914,-2.8305 3.9493,-4.5648 3.9786,-7.6289 -0.1168,-4.7524 -6.9872,-7.2395 -4.8075,-12.4399 1.7903,-3.621 4.866,-7.7636 2.8211,-11.9386 l 2.561,0.5769 c 1.7168,4.2836 -1.5586,7.7114 -2.9829,11.0278 -1.3765,3.9523 2.0864,6.9082 4.1489,9.9492 2.0828,3.4777 -1.1899,6.6914 -2.9824,9.5332 -0.6211,1.1691 -0.7446,2.2914 -0.604,3.3664 0.3254,2.2762 1.8813,4.3797 2.5903,6.5039 1.5176,3.6211 0.668,8.1211 -2.1567,10.8633 l 0.0825,0.0789 c 1.4121,-0.832 2.689,-2.2938 3.3218,-3.7352 2.4258,-4.8664 -1.0488,-9.173 -1.9043,-13.7109 -0.0464,-0.2254 -0.0789,-0.7238 -0.0964,-0.8996 0.0964,-2.5281 2.5515,-4.377 3.8171,-6.9403 2.1332,-4.1457 -1.6289,-7.0808 -3.7261,-10.198 -3.3989,-5.8332 4.7254,-9.2609 3.064,-15.0934 l 2.4875,0.8368 c 0.6414,3.1293 -1.7668,5.6371 -3.2312,8.2035 -2.0918,4.2539 1.664,7.541 3.8113,10.7754 2.1184,3.6797 -1.4062,7.4414 -3.3137,10.5238 -0.6035,0.9019 -0.7996,1.8426 -0.7554,2.7918 0.114,1.8105 1.2039,3.5652 1.8394,5.1707 1.4297,3.8793 0.4336,8.5754 -2.0801,11.4434 1.6821,-0.6883 3.0469,-2.5602 3.5864,-4.1368 1.6402,-4.2246 -0.5246,-8.2234 -1.3242,-12.0906 -0.0122,-0.1199 -0.0356,-0.2988 -0.0356,-0.384 v 0 c -0.1172,-3.5508 3.4984,-5.7683 4.4887,-9.0906 0.9722,-3.4191 -1.5617,-5.9414 -3.393,-8.2824 -4.6875,-5.9879 2.7363,-8.9063 2.6574,-13.936 0.7118,0.3071 1.6493,0.4387 2.0567,1.1625 -0.3489,2.795 -2.7278,4.752 -3.7266,7.295 -0.3894,1.2777 -0.3308,2.7129 0.4949,3.6535 l 0.1703,-0.1672 c -0.3046,-4.0664 3.2372,-6.5301 4.318,-10.0371 0.7649,0.3578 2.3735,1.4648 3.5625,2.5664 -0.334,0.2988 -0.9668,0.6973 -1.4883,0.9203 -0.2871,0.609 0.5215,1.1891 0.9028,1.743 l 2.3316,-0.8293 c 0.6801,0.6328 1.2656,1.1281 1.8984,1.9543 -0.8257,0.58 -1.8218,1.0281 -2.821,1.1867 -0.0262,0.6414 0.3339,1.1422 0.7468,1.5816 1.4067,0.0617 2.52,-0.6062 3.6504,-1.166 0.4336,0.4192 1.2278,1.2832 1.5617,2.0219 l -3.0586,1.5465 c -2.1445,1.1074 -1.4914,-1.5176 -2.4875,-2.1504 -2.7859,0.1086 -4.7753,2.0683 -6.8789,3.8176 0.1411,0.9316 1.1575,2.1945 1.5825,3.4656 1.207,4.0723 -2.0246,7.1371 -3.8204,10.3711 -0.4511,0.791 -0.6125,1.5793 -0.6125,2.3703 0.0176,2.1941 1.2571,4.3797 1.5208,6.6797 0.3804,3.0086 -0.7649,5.7918 -1.9043,8.2 0.7847,-0.4801 1.4468,-0.7996 2.0796,-1.9071 1.5469,-3.0437 2.0481,-6.9609 0.5715,-10.5292 -0.4426,-1.0809 -0.4597,-1.6848 -0.4133,-2.4434 0.2344,-3.8176 4.5176,-6.5039 4.5649,-10.5793 1.6582,-1.2363 3.1519,-3.3164 5.3848,-2.6539 0.1668,-0.7942 -0.229,-1.4535 -0.2407,-2.3969 1.9867,0.1055 3.3164,-1.3855 5.0481,-1.9156 0.4133,0.7234 1.1394,1.4414 1.0898,2.25 -1.9656,0.5797 -3.3777,2.5078 -5.5637,2.5543 l 0.4219,1.9133 c 2.2856,0.0527 4.0489,-1.9012 6.1996,-2.4258 0.662,0.6414 0.92,1.6023 1.172,2.5105 -2.6431,0.416 -4.5645,2.6543 -7.2134,3.0703 0.0239,0.8352 -0.2285,1.4856 0.0703,2.0395 2.52,0 3.6301,-1.7316 6.5451,-2.6457 1.805,-0.4832 1.998,1.8191 2.121,2.575 -3.504,-0.1348 -5.754,3.1465 -9.1524,3.2582 l -0.4101,2.068 c 3.6796,0.5976 6.2665,-3.3926 10.0485,-2.3145 0.129,1.1106 0.176,1.752 0.147,2.6926 0.009,0.1496 -0.006,0.4043 0,0.618 z m -39.469,3.7324 0.0883,-0.5039 c 1.0777,-0.7176 1.418,-1.9305 2.9117,-1.825 1.3215,-0.0793 2.3086,1.1601 2.9738,2.1621 -1.796,0.2461 -3.9726,-0.1379 -5.9738,0.1668"
         style="display:inline;fill:#231f20;fill-opacity:1;fill-rule:nonzero;stroke:none;stroke-width:0.1"
         id="path204"
         inkscape:connector-curvature="0"
         transform="matrix(1.3333333,0,0,-1.3333333,0,183.25333)" /></g></g></svg>